 <svg  version="1.0" xmlns="http://www.w3.org/2000/svg"  width="300.000000pt" height="299.000000pt" viewBox="0 0 300.000000 299.000000"  preserveAspectRatio="xMidYMid meet">  <g transform="translate(0.000000,299.000000) scale(0.050000,-0.050000)" fill="#ffffff" stroke="none"> <path d="M2749 5660 c-1846 -192 -2949 -2159 -2149 -3835 510 -1068 1657 -1692 2790 -1516 328 51 742 199 933 334 83 58 112 47 278 -112 333 -318 630 -335 888 -50 257 285 238 593 -58 940 l-148 173 97 194 c388 773 383 1635 -13 2422 -481 956 -1571 1559 -2618 1450z m652 -252 c1652 -283 2543 -2047 1790 -3545 -49 -99 -97 -185 -107 -190 -9 -6 -146 119 -304 277 l-288 288 43 96 c481 1082 -338 2311 -1539 2309 -1395 -2 -2163 -1626 -1282 -2712 445 -550 1230 -750 1910 -488 l161 62 291 -291 290 -290 -208 -105 c-1693 -851 -3614 310 -3606 2181 6 1510 1368 2662 2849 2408z m-91 -1219 c270 -70 570 -273 650 -439 186 -385 -298 -747 -616 -461 -339 303 -812 93 -780 -347 28 -394 451 -529 792 -253 145 118 311 136 456 49 80 -48 1583 -1570 1618 -1638 172 -333 -199 -701 -532 -529 -30 15 -341 316 -691 669 l-637 641 -121 -50 c-915 -374 -1896 493 -1649 1457 169 662 855 1072 1510 901z m993 -558 c109 -206 163 -776 96 -1016 -29 -104 -48 -97 -229 86 -88 88 -194 184 -235 212 -95 67 -96 65 36 189 147 140 225 303 242 507 14 162 16 162 90 22z m-1193 -480 c84 -35 250 -147 250 -168 0 -30 -250 -187 -313 -197 -139 -23 -244 46 -261 170 -23 173 141 272 324 195z"/> </g> </svg> 