<?xml version="1.0" standalone="no"?>
<!DOCTYPE svg PUBLIC "-//W3C//DTD SVG 20010904//EN"
 "http://www.w3.org/TR/2001/REC-SVG-20010904/DTD/svg10.dtd">
<svg version="1.0" xmlns="http://www.w3.org/2000/svg"
 width="900.000000pt" height="897.000000pt" viewBox="0 0 900.000000 897.000000"
 preserveAspectRatio="xMidYMid meet">
<metadata>
Created by potrace 1.10, written by Peter Selinger 2001-2011
</metadata>
<g transform="translate(0.000000,897.000000) scale(0.100000,-0.100000)"
fill="#ffffff" stroke="none">
<path d="M0 4485 l0 -4485 4500 0 4500 0 0 4485 0 4485 -4500 0 -4500 0 0
-4485z m4937 3641 c202 -29 370 -61 503 -98 41 -11 91 -24 110 -29 120 -29
505 -184 639 -258 41 -23 75 -41 77 -41 25 0 409 -255 534 -355 112 -89 327
-290 412 -383 69 -76 235 -275 261 -312 205 -297 306 -476 422 -749 219 -515
309 -1034 284 -1631 -21 -496 -146 -970 -380 -1438 -105 -211 -179 -336 -201
-340 -10 -2 -174 153 -437 415 -427 424 -444 443 -413 478 32 36 132 311 178
487 38 149 74 428 74 583 0 111 -22 337 -44 460 -47 255 -121 472 -242 703
-171 327 -369 565 -673 810 -328 264 -722 436 -1161 506 -116 19 -373 35 -455
29 -288 -21 -300 -22 -535 -73 -156 -33 -405 -129 -580 -222 -614 -329 -1079
-929 -1246 -1608 -90 -367 -90 -815 1 -1185 110 -447 336 -848 654 -1160 220
-216 419 -359 680 -487 319 -156 629 -234 1017 -254 182 -9 503 24 689 73 163
42 395 127 509 187 19 9 35 12 45 6 9 -5 202 -194 429 -421 306 -305 412 -417
410 -432 -8 -53 -518 -310 -798 -401 -63 -21 -133 -44 -155 -51 -69 -24 -238
-66 -295 -75 -30 -5 -122 -20 -205 -34 -406 -69 -1007 -46 -1395 54 -19 5 -72
18 -117 30 -177 45 -450 145 -638 235 -101 48 -325 175 -426 241 -90 58 -304
218 -359 267 -335 301 -545 544 -747 865 -29 46 -53 86 -53 88 0 3 -12 23 -26
46 -48 76 -172 331 -217 448 -133 341 -199 609 -243 990 -21 174 -24 608 -6
740 72 531 155 823 352 1235 182 382 399 686 714 1001 215 214 365 338 576
475 135 88 345 207 440 250 25 11 58 27 75 34 55 26 257 105 344 135 219 76
531 143 786 170 61 6 119 13 130 15 59 10 600 -4 702 -19z m-94 -1827 c316
-65 604 -203 849 -406 143 -119 228 -230 275 -358 25 -70 26 -279 0 -349 -40
-109 -73 -162 -149 -238 -116 -116 -262 -178 -416 -178 -159 0 -304 58 -420
169 -138 130 -244 180 -444 206 -53 7 -221 -19 -283 -43 -192 -76 -339 -238
-407 -448 -32 -98 -31 -278 1 -381 69 -218 261 -405 472 -457 94 -23 275 -22
362 3 93 27 250 120 297 175 51 62 193 145 286 167 63 15 225 15 289 0 59 -14
153 -60 215 -106 25 -18 425 -417 890 -887 1549 -1563 1429 -1438 1483 -1550
30 -64 57 -177 57 -243 0 -170 -88 -355 -218 -461 -187 -153 -439 -176 -655
-61 -93 49 -11 -31 -1171 1140 -459 464 -806 807 -817 807 -9 0 -54 -16 -98
-35 -254 -108 -482 -155 -756 -155 -317 1 -610 74 -874 219 -41 23 -75 41 -77
41 -2 0 -58 39 -125 86 -191 136 -395 356 -512 551 -281 466 -344 1053 -168
1563 70 206 139 333 282 525 302 405 791 679 1294 725 143 13 424 2 538 -21z"/>
</g>
</svg>
