<?xml version="1.0" standalone="no"?>
<!DOCTYPE svg PUBLIC "-//W3C//DTD SVG 20010904//EN"
 "http://www.w3.org/TR/2001/REC-SVG-20010904/DTD/svg10.dtd">
<svg version="1.0" xmlns="http://www.w3.org/2000/svg"
 width="300.000000pt" height="299.000000pt" viewBox="0 0 300.000000 299.000000"
 preserveAspectRatio="xMidYMid meet">
<metadata>
Created by potrace 1.10, written by Peter Selinger 2001-2011
</metadata>
<g transform="translate(0.000000,299.000000) scale(0.100000,-0.100000)"
fill="#000000" stroke="none">
<path d="M1340 2753 c-77 -12 -223 -49 -278 -69 -413 -156 -713 -507 -809
-946 -25 -116 -25 -370 0 -488 92 -430 379 -776 777 -937 288 -116 633 -119
925 -7 104 41 189 85 227 122 l27 25 98 -95 c108 -105 141 -126 212 -135 117
-14 230 77 255 206 4 21 0 58 -11 95 -15 54 -27 71 -116 163 l-98 103 30 37
c17 21 48 76 70 123 84 182 121 347 121 539 0 356 -131 665 -389 914 -191 185
-413 297 -675 342 -81 14 -301 19 -366 8z m356 -48 c522 -85 934 -493 1019
-1010 29 -177 16 -392 -36 -560 -21 -73 -127 -305 -139 -305 -3 0 -70 64 -148
143 -91 90 -141 147 -138 157 3 8 16 46 31 85 124 328 8 720 -275 933 -157
119 -317 173 -509 173 -225 0 -409 -73 -568 -225 -169 -160 -263 -374 -263
-600 0 -377 237 -691 607 -802 77 -23 106 -27 223 -27 146 0 241 19 339 66
l50 23 147 -147 147 -147 -64 -33 c-239 -123 -384 -161 -619 -161 -337 -1
-630 121 -871 361 -321 322 -436 788 -303 1231 10 30 40 105 69 165 168 357
501 606 910 680 96 18 282 18 391 0z m-44 -439 c283 -54 508 -252 605 -531 25
-74 27 -92 28 -240 0 -143 -3 -167 -24 -230 -13 -38 -30 -83 -38 -99 l-15 -28
-126 125 c-146 143 -190 170 -277 170 -65 0 -99 -14 -188 -78 -53 -38 -99 -51
-151 -41 -162 30 -197 256 -53 337 31 17 51 20 102 17 56 -3 69 -9 119 -47 94
-73 172 -88 256 -50 60 27 98 64 126 124 58 123 4 245 -158 354 -180 120 -445
137 -640 41 -495 -246 -504 -929 -16 -1185 162 -86 316 -95 530 -34 l48 13 40
-39 c22 -21 40 -44 40 -50 0 -14 -117 -59 -195 -76 -80 -16 -233 -16 -320 0
-310 61 -557 307 -621 621 -22 110 -15 274 16 375 93 296 334 507 640 558 58
10 204 6 272 -7z m73 -194 c93 -37 205 -117 242 -174 92 -139 -27 -328 -190
-304 -44 7 -62 17 -137 74 -54 40 -110 56 -169 47 -57 -9 -87 -24 -128 -67
-113 -117 -70 -306 84 -367 20 -8 57 -12 93 -9 48 3 69 11 103 36 98 73 129
87 188 86 39 -1 67 -7 90 -22 47 -28 792 -780 812 -817 42 -82 29 -166 -37
-231 -65 -65 -149 -79 -229 -37 -16 8 -172 158 -346 334 l-316 320 -60 -25
c-326 -134 -702 47 -817 392 -32 95 -32 267 -1 367 52 164 164 296 319 374
100 51 154 61 294 58 113 -3 133 -7 205 -35z"/>
</g>
</svg>
