<?xml version="1.0" standalone="no"?>
<!DOCTYPE svg PUBLIC "-//W3C//DTD SVG 20010904//EN"
 "http://www.w3.org/TR/2001/REC-SVG-20010904/DTD/svg10.dtd">
<svg version="1.0" xmlns="http://www.w3.org/2000/svg"
 width="300.000000pt" height="299.000000pt" viewBox="0 0 300.000000 299.000000"
 preserveAspectRatio="xMidYMid meet">
<metadata>
Created by potrace 1.10, written by Peter Selinger 2001-2011
</metadata>
<g transform="translate(0.000000,299.000000) scale(0.100000,-0.100000)"
fill="#000000" stroke="none">
<path d="M0 1495 l0 -1495 1500 0 1500 0 0 1495 0 1495 -1500 0 -1500 0 0
-1495z m1748 1201 c281 -62 525 -208 701 -422 177 -213 268 -455 278 -735 9
-225 -32 -416 -128 -599 -65 -126 -45 -130 -208 34 l-143 143 20 46 c86 195
87 446 2 651 -130 311 -428 507 -771 507 -330 0 -611 -180 -755 -484 -57 -122
-69 -183 -68 -352 0 -139 3 -156 31 -242 73 -221 209 -381 413 -487 212 -111
463 -123 692 -35 l80 31 141 -140 c84 -84 137 -144 133 -151 -12 -19 -184
-101 -274 -132 -256 -87 -558 -82 -815 12 -565 205 -903 809 -782 1394 94 455
448 829 895 946 159 41 407 48 558 15z m-94 -602 c120 -31 258 -117 312 -195
61 -88 37 -212 -53 -269 -84 -53 -172 -48 -241 14 -61 55 -100 70 -172 70 -76
-1 -112 -16 -162 -72 -45 -50 -61 -99 -56 -172 8 -109 89 -190 198 -198 72 -5
118 9 172 54 23 20 55 42 72 51 43 22 123 20 172 -5 47 -24 796 -777 821 -826
21 -40 21 -132 0 -172 -50 -97 -172 -137 -267 -89 -14 7 -169 158 -345 334
l-320 321 -61 -25 c-457 -186 -948 247 -824 729 55 217 236 399 446 450 81 20
232 20 308 0z"/>
</g>
</svg>
